<svg width="114" height="25" viewBox="0 0 114 25" fill="none" xmlns="http://www.w3.org/2000/svg">
<path d="M41.1714 19.3392C40.1768 20.5661 39.3879 21.4446 38.7805 21.9818C38.1755 22.519 37.6165 22.8965 37.0962 23.124C36.9582 23.1845 36.8203 23.2353 36.6824 23.2789C35.8112 23.5572 34.9155 23.5378 33.9792 23.2281C33.9091 23.2039 33.8389 23.1797 33.766 23.1531C31.6679 22.3327 29.9209 20.7403 28.5004 18.3663C27.0847 15.9923 26.6443 13.9571 27.2926 12.1857C27.9366 10.4191 29.2337 9.07362 31.1839 8.17339C31.5205 8.01851 31.8835 7.87815 32.2659 7.74747C33.1056 7.46434 34.0543 7.24412 35.1094 7.09408C35.2086 7.11102 35.3006 7.1328 35.3853 7.16184C35.6415 7.24654 35.8184 7.37964 35.9176 7.55629C36.0507 7.79587 36.0338 8.06449 35.8644 8.36215C35.6974 8.66465 35.4409 8.88728 35.1021 9.03974H35.097C34.4874 9.1559 33.9187 9.30594 33.396 9.4826C33.0814 9.58908 32.7814 9.70766 32.5006 9.8335C30.7728 10.6224 29.7491 11.6727 29.4152 12.9795C29.0836 14.2814 29.4611 15.806 30.4945 17.5871C31.5302 19.3731 32.8056 20.554 34.3447 21.1469C34.3955 21.1663 34.4439 21.1856 34.4947 21.2026C35.1336 21.4276 35.7386 21.447 36.3218 21.2582C36.4113 21.2316 36.5009 21.1977 36.5904 21.159C37.2944 20.8541 38.2311 19.9974 39.4411 18.5841C39.8695 18.0977 40.179 17.8122 40.3632 17.7347C40.3922 17.7226 40.421 17.7105 40.4503 17.7008C40.6003 17.6524 40.7382 17.6476 40.8568 17.6863C41.0214 17.7371 41.1567 17.8702 41.261 18.0856C41.457 18.4898 41.4231 18.9084 41.1714 19.3392Z" fill="#0C1249"/>
<path d="M49.2566 15.1599C49.2225 15.1696 49.1889 15.1768 49.155 15.1841C48.8498 15.247 48.5982 15.2446 48.4 15.1768C48.3658 15.1647 48.3344 15.1526 48.3032 15.1357C48.0924 15.0292 47.9617 14.8211 47.9087 14.5137C47.7369 13.4126 47.3739 11.6824 46.7883 9.32772C46.7858 9.32772 46.7858 9.32772 46.7832 9.33014C46.7614 9.3374 46.7374 9.34466 46.7157 9.35192C46.3597 9.4705 45.8227 9.60844 45.1112 9.76816C44.3511 9.9424 43.1462 10.1263 41.5006 10.349C41.5584 10.5571 41.6168 10.7652 41.6773 10.9757C41.7908 11.3968 42.3016 12.8899 43.1607 15.4769C43.2696 15.7963 43.2115 16.0577 42.9911 16.2682C42.8026 16.4497 42.5896 16.578 42.357 16.6433C42.3256 16.653 42.2941 16.6603 42.2629 16.6675C42.0814 16.7087 41.9168 16.7087 41.7692 16.6724C41.699 16.653 41.631 16.624 41.5681 16.5877C41.3723 16.4739 41.2366 16.319 41.1594 16.1206C40.3606 14.1023 39.7921 12.5729 39.4848 11.5178C39.175 10.4579 38.9741 9.73912 38.8868 9.35918C38.4393 7.70392 37.9844 6.05349 37.5222 4.40791C37.4663 4.17075 37.5536 3.93117 37.7763 3.69159C37.9723 3.48589 38.1998 3.34069 38.4633 3.25358C38.4998 3.24148 38.5385 3.22938 38.5773 3.2197C38.8289 3.15436 39.0371 3.14468 39.2016 3.19308C39.417 3.25116 39.562 3.40603 39.6321 3.64803C40.0728 5.19924 40.5036 6.7577 40.9271 8.31859C42.0521 8.21937 43.0131 8.07901 43.809 7.89267C44.6149 7.70634 45.1015 7.59502 45.2758 7.55388C45.6097 7.47644 45.9459 7.40142 46.2825 7.32398H46.2871C45.9413 6.23257 45.4766 4.55794 44.8813 2.33398C44.8039 2.05327 44.8956 1.78465 45.1497 1.53539C45.3699 1.31275 45.6267 1.15546 45.9241 1.0635C45.9652 1.0514 46.009 1.0393 46.0526 1.02962C46.2341 0.986057 46.3962 0.990896 46.539 1.04172C46.6719 1.08285 46.7883 1.16513 46.8875 1.28613C47.0954 1.53781 47.2163 1.79675 47.265 2.06537C47.8213 4.25787 48.3612 6.46247 48.884 8.67675C49.23 10.1892 49.5688 11.7066 49.9003 13.2287C50.1472 14.3274 49.927 14.9687 49.2566 15.1599Z" fill="#0C1249"/>
<path d="M63.232 3.30918C63.0865 5.39762 62.8932 7.03111 62.6923 8.21206C62.4719 9.39543 62.2807 10.3053 62.0992 10.9539C61.6055 12.9044 60.8481 14.2741 59.8464 15.0679C59.5149 15.3316 59.1422 15.5349 58.7306 15.6801C57.8984 15.9778 56.9059 16.0359 55.7371 15.8689C55.338 15.8108 54.9629 15.7213 54.6144 15.6003C53.8495 15.3341 53.2058 14.9106 52.6785 14.3322C51.9089 13.4949 51.4198 12.4664 51.2023 11.2516C50.8732 9.41237 50.8245 7.41347 51.0764 5.24275C51.1875 4.30379 51.3523 3.36484 51.5723 2.41621C51.6282 2.13791 51.824 1.92495 52.1654 1.7725C52.2378 1.73862 52.308 1.70958 52.3781 1.68538C52.6373 1.59584 52.8745 1.55954 53.0923 1.58132C53.1939 1.591 53.2856 1.61036 53.3706 1.64182C53.5158 1.69022 53.639 1.7725 53.7384 1.8814C53.8933 2.06047 53.9369 2.27827 53.8836 2.53721C53.6368 3.56812 53.4625 4.49981 53.3558 5.32987C53.2469 6.15992 53.1743 6.90769 53.1356 7.57076C53.056 9.18731 53.2714 10.5982 53.7626 11.8106C54.1641 12.7955 54.7376 13.4295 55.4881 13.7078C55.6623 13.7708 55.846 13.8167 56.0374 13.8433C56.5286 13.9111 56.9812 13.8821 57.395 13.7538C58.8567 13.3013 59.8293 11.6121 60.3304 8.6646C60.7104 6.4116 60.8674 4.69341 60.7999 3.50278C60.7854 3.41808 60.8023 3.28498 60.8287 3.10107C60.8604 2.92199 61.0274 2.74533 61.3371 2.57351C61.4337 2.52027 61.5283 2.47671 61.6203 2.44525C61.6517 2.43315 61.6832 2.42347 61.7144 2.41379C61.8862 2.36539 62.0581 2.35087 62.2253 2.37023C62.3293 2.38475 62.4286 2.40895 62.5227 2.44525C62.6848 2.50333 62.8303 2.59287 62.9559 2.71387C63.1567 2.90021 63.2487 3.10106 63.232 3.30918Z" fill="#0C1249"/>
<path d="M78.2541 5.16953C77.3681 8.79227 76.3551 12.9866 75.2792 17.7078C75.2099 18.0272 75.0352 18.2894 74.7654 18.4968C74.7359 18.5186 74.7057 18.5381 74.6747 18.5553C74.4789 18.6733 74.2385 18.7197 73.9538 18.6919C73.86 18.6841 73.7564 18.6661 73.6511 18.6411C73.1855 18.5314 73.0197 18.1527 73.162 17.498C73.6232 15.394 73.9644 13.8153 74.1751 12.7841C74.3839 11.746 74.632 10.629 74.9173 9.41878C74.9152 9.41928 74.9134 9.42219 74.911 9.42274C74.5035 9.75188 74.1137 10.0296 73.7423 10.2583C73.2624 10.5547 72.812 10.7647 72.3898 10.8934C71.8439 11.0562 71.2113 11.105 70.4869 11.0461C70.1997 11.0189 69.8991 10.9775 69.5848 10.9194C68.4713 10.718 67.6562 10.2628 67.1497 9.54386C67.1503 9.54622 67.1477 9.54683 67.1483 9.54918C66.4275 13.091 66.0297 15.1378 65.8776 15.7401C65.7745 16.1595 65.5863 16.4497 65.3112 16.6111C65.0932 16.7417 64.8208 16.7881 64.4907 16.7586C64.4243 16.7518 64.3577 16.7425 64.2904 16.731C63.774 16.6382 63.5661 16.3141 63.6656 15.7514C64.014 13.9498 64.3782 12.142 64.755 10.3238C65.0982 8.55318 65.3775 7.15798 65.5881 6.14671C65.7014 5.59074 65.8147 5.03477 65.9301 4.4783C65.9873 4.20144 66.1602 3.9422 66.4362 3.72093C66.478 3.68628 66.5207 3.65638 66.5611 3.62704C66.7716 3.48576 66.9871 3.42033 67.2059 3.4312C67.2382 3.43109 67.2687 3.43389 67.3 3.43899C67.5963 3.48387 67.8477 3.59149 68.0561 3.74896C68.2591 3.91514 68.3438 4.12895 68.3066 4.39366C68.1212 5.4164 68.2233 6.37178 68.6047 7.25674C68.9808 8.14045 69.514 8.64435 70.2036 8.76609C70.367 8.79492 70.5263 8.81723 70.6834 8.83012C71.5634 8.90478 72.3666 8.73646 73.0971 8.32169C73.8424 7.896 74.5147 7.21153 75.1245 6.26082C75.1951 6.1697 75.3417 5.92657 75.5783 5.52563C75.811 5.1281 75.993 4.85431 76.1078 4.70809C76.1987 4.59732 76.3342 4.48603 76.5148 4.37659C76.5758 4.33993 76.6389 4.30276 76.7102 4.26619C76.9413 4.13994 77.1917 4.0937 77.4537 4.11929C77.5036 4.12003 77.5551 4.12784 77.6072 4.138C78.1855 4.25104 78.4034 4.59766 78.2541 5.16953Z" fill="#0C1249"/>
<path d="M89.2048 7.84601C89.2089 8.12602 89.0691 8.37941 88.7981 8.59898L88.7923 8.60082C88.5089 8.8212 88.1935 8.93174 87.8326 8.93988C87.0143 8.74371 86.2445 8.63949 85.524 8.63009C85.425 8.62703 85.3232 8.62488 85.2261 8.62755C83.7816 8.65726 82.6177 9.01116 81.7266 9.69173C81.4702 9.88767 81.2372 10.1077 81.0287 10.3547C80.0903 11.4708 79.6405 13.1162 79.683 15.2804C79.7223 17.4456 80.3233 19.1242 81.4751 20.323C82.0735 20.9467 82.7744 21.2501 83.5827 21.2376C84.3883 21.2166 85.6701 20.7681 87.4226 19.8747C88.0313 19.5755 88.437 19.4202 88.6446 19.4169L88.6503 19.4151C89.0966 19.408 89.3262 19.6316 89.3344 20.0999C89.3394 20.5598 89.136 20.9508 88.7095 21.2673L88.7038 21.2691C87.2475 22.071 86.1061 22.6134 85.2893 22.8943C84.4679 23.1729 83.763 23.3197 83.1574 23.3336C83.0793 23.3365 83.0032 23.3356 82.9258 23.3319C81.7899 23.2976 80.804 22.8643 79.9609 22.0281C78.3686 20.3731 77.5425 18.0902 77.489 15.1804C77.4317 12.2687 78.1369 10.099 79.5939 8.66814C79.8712 8.39914 80.1568 8.15593 80.4552 7.93392C81.7364 6.98929 83.2167 6.49926 84.9011 6.46855C85.0426 6.46745 85.1848 6.46617 85.3322 6.47265C86.3686 6.50099 87.4972 6.69889 88.7237 7.06454C89.0427 7.30055 89.1996 7.56322 89.2048 7.84601Z" fill="#0C1249"/>
<path d="M100.256 3.65996C100.432 3.96156 100.539 4.25805 100.553 4.55424L101.549 11.8987L102.201 16.9151C102.303 17.6524 102.234 18.1952 101.998 18.54C101.887 18.7004 101.736 18.8192 101.554 18.8949C101.459 18.9325 101.356 18.9589 101.239 18.9745C100.857 19.0289 100.557 18.9892 100.345 18.8597C100.129 18.7264 100.01 18.49 99.9913 18.1437C99.9172 16.9366 99.7043 15.0221 99.3436 12.4076C98.9675 12.5041 98.3751 12.6037 97.5755 12.7169C96.7741 12.828 95.5129 12.9065 93.7961 12.9561L93.7955 12.9602L93.8989 13.6676C93.9618 14.1393 94.2816 15.8455 94.8661 18.7767C94.919 19.0413 94.8813 19.2651 94.7516 19.4451C94.7071 19.5101 94.6538 19.5676 94.5849 19.6197C94.4245 19.7493 94.2538 19.8476 94.0786 19.9142C93.9738 19.9527 93.8675 19.9811 93.7572 19.9951C93.4709 20.0301 93.2248 19.9782 93.0321 19.8372C92.838 19.69 92.7135 19.5007 92.6633 19.2837C92.0927 16.9712 91.7254 15.2067 91.5583 13.9997C91.3972 12.7913 91.2982 11.9694 91.2603 11.5419L90.624 5.86818C90.6183 5.69739 90.6631 5.5359 90.7606 5.38196C90.8179 5.28908 90.8941 5.20236 90.9885 5.11537C91.157 4.9648 91.3389 4.85345 91.5324 4.78289C91.6335 4.74412 91.739 4.71966 91.8474 4.70362C92.4335 4.62694 92.7658 4.83428 92.8282 5.3279L93.4859 10.6515C94.6388 10.6785 95.6324 10.6374 96.4679 10.5238C97.3014 10.4082 97.8089 10.3414 97.9937 10.3172L99.0362 10.1722L99.042 10.1711C98.8042 8.94251 98.5136 7.06935 98.1733 4.56358C98.1444 4.36857 98.1835 4.18668 98.2826 4.01709C98.3411 3.91246 98.4243 3.81658 98.5273 3.72259C98.704 3.56893 98.8964 3.45275 99.106 3.37994C99.2196 3.33458 99.3416 3.30395 99.4658 3.2894C99.8155 3.23933 100.083 3.36285 100.256 3.65996Z" fill="#0C1249"/>
<path d="M106.992 7.32645C107.041 7.6517 107.118 8.37143 107.218 9.49556C107.697 14.7533 107.943 17.9562 107.965 19.1059C107.967 19.2436 107.93 19.3795 107.853 19.5079C107.79 19.6183 107.695 19.7248 107.57 19.8276C107.469 19.9139 107.37 19.9837 107.269 20.0405C107.1 20.1323 106.931 20.1839 106.757 20.2039C106.206 20.248 105.906 20.0405 105.862 19.5632L104.896 7.5303C104.881 7.35767 104.907 7.2034 104.971 7.06567C105.012 6.981 105.065 6.90589 105.135 6.8361C105.223 6.74409 105.328 6.67265 105.443 6.61939C105.559 6.56613 105.688 6.53308 105.833 6.52389C106.119 6.49432 106.369 6.54226 106.59 6.65961C106.812 6.77935 106.942 7.00139 106.992 7.32645Z" fill="#0C1249"/>
<g clip-path="url(#clip0_103_134)">
<path d="M8.99097 16.8242C8.96733 17.0248 8.84374 17.2177 8.68639 17.3373C8.36695 17.5701 7.98741 17.5942 7.65919 17.4643C7.59639 17.4389 7.56059 17.4149 7.54709 17.4094C7.56059 17.4039 7.59639 17.3792 7.65311 17.3469C7.80372 17.261 7.94486 17.2054 8.08128 17.156C8.2177 17.1086 8.35345 17.0776 8.48176 17.0254C8.6067 16.9718 8.72623 16.8929 8.8039 16.761C8.88359 16.629 8.88899 16.4566 8.85725 16.3007C8.85117 16.2547 8.84239 16.2567 8.86806 16.298C8.94505 16.4429 9.02676 16.6215 8.99097 16.8242ZM6.4456 18.6789C6.37199 18.878 6.24165 19.0608 6.07079 19.1968C5.90127 19.3335 5.68989 19.4208 5.47446 19.4365C5.26173 19.4496 5.04021 19.3987 4.87003 19.2841C4.80925 19.2394 4.77345 19.2058 4.75995 19.1968C4.75522 19.1975 4.75252 19.1975 4.75319 19.1955C4.75319 19.1941 4.75522 19.1941 4.75995 19.1968C4.7775 19.1948 4.82343 19.181 4.89704 19.1694C5.08884 19.1288 5.24282 19.0952 5.40017 19.0512C5.55482 19.0114 5.70745 18.9639 5.85873 18.8897C6.00933 18.8155 6.15791 18.7139 6.27744 18.5744C6.39428 18.4364 6.48072 18.2598 6.49828 18.0716C6.50706 18.0188 6.49828 18.0173 6.50976 18.0723C6.54015 18.2653 6.52597 18.4824 6.4456 18.6789ZM13.3415 21.7887C13.3341 21.7598 13.3253 21.7309 13.3145 21.7021C13.2564 21.5433 13.1484 21.3908 13.0126 21.2501C12.6864 20.9183 12.2515 20.6503 11.8288 20.3626C11.4438 20.0988 11.0413 19.8288 10.7023 19.4544C10.6685 19.418 10.6361 19.3803 10.6044 19.3411C10.5922 19.3267 10.5794 19.3108 10.5679 19.2951C10.5463 19.2669 10.5253 19.2381 10.5044 19.2085C10.497 19.1982 10.4896 19.1865 10.4828 19.1769C10.4754 19.1659 10.4679 19.1543 10.4612 19.1433C10.4558 19.135 10.4511 19.1282 10.447 19.1206C10.4342 19.1007 10.4227 19.0814 10.4112 19.0608C10.4051 19.0505 10.3991 19.0402 10.393 19.0292C10.393 19.0285 10.393 19.0279 10.3923 19.0265C10.391 19.0258 10.3903 19.0237 10.3896 19.0216C10.3808 19.0066 10.372 18.9908 10.3646 18.975C10.3633 18.9728 10.3626 18.9715 10.3619 18.9688C10.3612 18.9681 10.3606 18.9673 10.3599 18.966C10.3268 18.9028 10.2984 18.8369 10.2741 18.7689C10.268 18.7517 10.2626 18.7366 10.2572 18.7201C10.2545 18.7118 10.2518 18.7042 10.2498 18.6961C10.2431 18.6754 10.237 18.6542 10.2316 18.6342C10.2255 18.613 10.2201 18.591 10.2154 18.5696C10.1904 18.4447 10.1735 18.3257 10.16 18.209C10.1573 18.1864 10.1546 18.1629 10.1526 18.1403V18.139C10.1397 18.0188 10.1303 17.9006 10.1181 17.7783C10.0796 17.3263 10.056 16.8777 10.006 16.4388C9.99858 16.3735 9.99048 16.3082 9.9817 16.2437C9.93915 15.9319 9.88107 15.6193 9.77842 15.328C9.74803 15.2415 9.71359 15.1563 9.67442 15.0739C9.66091 15.0463 9.6474 15.0189 9.63322 14.9928C9.61904 14.9653 9.60418 14.9379 9.58797 14.9104C9.57311 14.885 9.55758 14.8589 9.54137 14.8348C9.51909 14.7997 9.49613 14.7654 9.47316 14.7325C9.47249 14.7318 9.47249 14.731 9.47181 14.7304C9.44412 14.729 9.41576 14.7283 9.38739 14.729C9.30095 14.7283 9.21518 14.7338 9.13009 14.7454C9.12874 14.7462 9.12739 14.7462 9.12604 14.7462C8.75122 14.7963 8.38721 14.955 8.05089 15.1556C8.02253 15.172 7.99416 15.1892 7.9658 15.2078C7.89489 15.2511 7.82533 15.2971 7.75644 15.3438C7.60517 15.4448 7.5822 15.4565 7.68486 15.3734C7.70174 15.3603 7.72132 15.3445 7.74429 15.3259C7.79021 15.2909 7.83613 15.2545 7.88206 15.2195C7.88273 15.2188 7.88341 15.2181 7.88408 15.2181C7.93068 15.1817 7.97795 15.1467 8.02658 15.1137C8.05427 15.0952 8.08196 15.0772 8.11032 15.0601C8.18056 15.0134 8.25147 14.968 8.32508 14.9254C8.38316 14.8918 8.44259 14.8602 8.50405 14.8321C8.7627 14.6967 9.04567 14.6013 9.34215 14.5682C9.34958 14.5669 9.357 14.5662 9.36443 14.5655C9.36916 14.5648 9.37456 14.5648 9.37929 14.5642C9.46168 14.5552 9.54475 14.5525 9.62849 14.5552C9.6366 14.5552 9.64538 14.5552 9.65348 14.5559C9.75681 14.56 9.86081 14.5724 9.96279 14.5936C10.0803 14.617 10.1965 14.6528 10.3079 14.6988C10.603 14.8211 10.8677 15.0065 11.1007 15.2161C11.3351 15.4166 11.5485 15.6865 11.7315 15.8748C11.9145 16.0548 12.1537 16.1798 12.3967 16.2259C12.6419 16.2774 12.8776 16.2149 13.0005 16.0795C13.1254 15.9435 13.141 15.6845 13.0917 15.4256C13.0187 15.1397 12.9073 14.8616 12.7615 14.5998C12.6297 14.3615 12.471 14.1361 12.2914 13.9294C11.924 13.5104 11.4668 13.1697 10.9603 12.9574C10.6564 12.829 10.3336 12.7458 10.004 12.7115C9.77369 12.6868 9.54002 12.6861 9.30703 12.7101C9.30568 12.7101 9.30433 12.7101 9.30298 12.7107C9.18277 12.7225 9.06323 12.7404 8.94505 12.7643C8.50472 12.8509 8.07453 13.0158 7.66662 13.2295C7.49643 13.3332 7.34246 13.4197 7.20941 13.4939C7.0838 13.5784 6.97845 13.6505 6.88863 13.7116C6.71709 13.827 6.62929 13.882 6.62119 13.8717C6.61781 13.8669 6.62862 13.8504 6.65428 13.8202C6.68805 13.781 6.74613 13.7199 6.82785 13.6354C6.90146 13.5626 6.98993 13.4671 7.10541 13.3626C7.229 13.2645 7.37352 13.1498 7.54573 13.0241C7.88948 12.8001 8.26092 12.6112 8.65532 12.48C8.81403 12.4271 8.97746 12.3831 9.1436 12.3508C9.09159 12.2017 9.05513 12.0485 9.03689 11.8899C8.86671 11.881 8.70597 11.8411 8.54051 11.826C8.17178 11.7827 7.80034 11.7655 7.4316 11.7732C7.38433 11.7745 7.33705 11.7759 7.28978 11.778C7.18915 11.7821 7.08853 11.7882 6.98858 11.7958C6.47464 11.8342 5.96881 11.916 5.47986 12.0493C5.47783 12.05 5.47648 12.0507 5.47513 12.0507C5.42853 12.0637 5.38194 12.0768 5.33534 12.0905C5.33399 12.0905 5.33264 12.0912 5.33129 12.0918C5.31305 12.0973 5.29414 12.1029 5.27591 12.1084C4.58638 12.3213 3.9367 12.6524 3.36266 13.09C3.02702 13.3449 2.71231 13.645 2.44014 13.9734L2.45973 13.9637C2.39692 14.0345 2.33682 14.106 2.27806 14.1787C2.27806 14.1795 2.27739 14.1802 2.27671 14.1809C2.27468 14.1822 2.27401 14.1842 2.27266 14.1857C2.19567 14.2887 2.12273 14.393 2.0552 14.5003C2.14299 14.9254 2.25172 15.3458 2.38004 15.7601C2.6083 15.5691 2.8494 15.3925 3.10063 15.2312C3.39981 15.0471 3.64833 14.9543 3.82392 14.9159C3.91712 14.8938 3.98465 14.8863 4.0272 14.8856C4.03598 14.8856 4.04408 14.885 4.05084 14.885C4.08798 14.8836 4.10621 14.887 4.10756 14.8911C4.10756 14.9192 3.77124 15.0024 3.25866 15.4296C3.00338 15.6365 2.76093 15.861 2.53199 16.0981C2.52389 16.1049 2.51713 16.1125 2.51038 16.1201C2.43812 16.1943 2.36721 16.2698 2.29832 16.3468C2.27401 16.3729 2.25037 16.399 2.22741 16.4264C2.21255 16.4422 2.19905 16.4587 2.18486 16.4745C1.86813 16.8372 1.57841 17.2233 1.31232 17.6203C1.04151 18.027 0.805137 18.4556 0.638328 18.8959C0.480973 19.326 0.407361 19.826 0.663316 20.0493C0.785553 20.1675 0.988155 20.2286 1.20291 20.2588L1.37107 20.2685L1.43253 20.2725L1.51155 20.2685L1.88366 20.2561C2.33141 20.2135 2.80213 20.1324 3.05808 19.7849C3.18505 19.6137 3.25663 19.3981 3.31269 19.1639C3.33024 19.0917 3.34645 19.0161 3.36199 18.9406C3.36401 18.9289 3.36671 18.9166 3.36941 18.9049V18.9022C3.37684 18.8678 3.3836 18.8327 3.39103 18.7971C3.41736 18.6658 3.44505 18.534 3.4795 18.4048C3.54973 18.1574 3.64631 17.9061 3.81447 17.7082C3.85634 17.6581 3.89551 17.6066 3.9394 17.5606L4.09001 17.4431C4.18388 17.3558 4.30341 17.3105 4.41417 17.2535C4.46212 17.2294 4.49589 17.2144 4.51547 17.2061C4.51817 17.2047 4.52155 17.2034 4.52358 17.2027C4.52628 17.2012 4.5283 17.2012 4.52965 17.2005C4.53168 17.2005 4.53236 17.1999 4.53303 17.1999C4.53303 17.202 4.52493 17.2082 4.50872 17.2192C4.53708 17.2061 4.55397 17.1999 4.55734 17.1999C4.55734 17.204 4.52087 17.2281 4.44794 17.2727C4.00289 17.5036 3.71519 17.9514 3.66184 18.4412C3.62942 18.6281 3.61929 18.8225 3.60241 19.0203C3.60308 19.0209 3.60308 19.0216 3.60241 19.0224C3.60646 19.1179 3.60984 19.2154 3.61389 19.2209C3.64563 19.2703 3.77124 19.4544 3.80636 19.506C3.80569 19.5067 3.80636 19.5073 3.80771 19.508C4.11297 19.8824 4.45266 20.2279 4.81397 20.548C4.87881 20.6051 4.94364 20.6613 5.00982 20.717C5.01117 20.7177 5.01117 20.7183 5.01252 20.719C5.01252 20.719 5.01387 20.7198 5.01455 20.7205C5.01725 20.7225 5.01995 20.7253 5.02265 20.7273C5.02333 20.7273 5.02333 20.728 5.024 20.728C5.28941 20.9286 5.57306 21.1305 5.88372 21.3847C5.88642 21.3868 5.88979 21.3888 5.8925 21.3908C6.61376 21.8896 7.37893 22.3203 8.17448 22.6727C9.08417 23.0794 10.0459 23.394 11.017 23.4888C11.1136 23.4964 11.2122 23.5019 11.3094 23.5039H11.3108C11.3567 23.5046 11.4033 23.5053 11.4499 23.5039C11.7781 23.4991 12.0989 23.4531 12.3819 23.3343C12.4636 23.2965 12.5494 23.2614 12.6162 23.2168C12.6317 23.2079 12.6466 23.1969 12.6602 23.1858C12.7006 23.1529 12.7391 23.1474 12.785 23.0952L12.9188 22.9564L12.9458 22.9289L12.9492 22.9235L12.962 22.9055L13.0079 22.843L13.0147 22.8334C13.0241 22.8197 13.0343 22.8067 13.0444 22.7929C13.064 22.7654 13.0842 22.7387 13.1011 22.7104C13.1065 22.703 13.1112 22.6947 13.1153 22.6872C13.1443 22.6424 13.1713 22.5972 13.195 22.5511C13.2254 22.4969 13.2517 22.4419 13.276 22.3863C13.2916 22.3485 13.3057 22.3107 13.3172 22.2723C13.3415 22.1946 13.3577 22.1177 13.3631 22.0421C13.3699 21.9555 13.3638 21.8704 13.3415 21.7887Z" fill="#D10E0E"/>
<path d="M19.8465 4.83026C19.3751 5.77411 18.8328 6.86771 18.2398 8.10281C18.2007 8.18662 18.1365 8.24776 18.05 8.2876C18.0406 8.29172 18.0312 8.29516 18.0216 8.2979C17.9609 8.31782 17.8926 8.31508 17.8171 8.28897C17.7913 8.28073 17.7644 8.26974 17.7367 8.25531C17.6172 8.19486 17.5962 8.07946 17.6766 7.90772C17.9359 7.35612 18.129 6.9419 18.252 6.67056C18.3749 6.39716 18.5134 6.10521 18.6673 5.78922C18.5356 5.85379 18.412 5.90531 18.2966 5.94447C18.1473 5.9953 18.0116 6.02415 17.8887 6.03239C17.73 6.04201 17.555 6.01453 17.3619 5.95134C17.2848 5.92592 17.2058 5.89501 17.1235 5.85791C16.8344 5.73014 16.642 5.55223 16.5501 5.32142C16.1287 6.25359 15.8903 6.79352 15.8106 6.95014C15.7559 7.05936 15.6863 7.12737 15.6013 7.15416C15.5337 7.17614 15.4567 7.17133 15.369 7.14179C15.3513 7.1363 15.3332 7.12943 15.3149 7.12119C15.1805 7.06211 15.1447 6.95907 15.2075 6.81C15.4169 6.33465 15.631 5.8586 15.8491 5.38049C16.055 4.91338 16.2199 4.54587 16.3414 4.28003C16.4076 4.13371 16.4738 3.98739 16.5407 3.84107C16.5738 3.76826 16.6372 3.70781 16.7264 3.66453C16.7406 3.65766 16.7541 3.65148 16.7676 3.64667C16.8338 3.62126 16.8965 3.61713 16.9553 3.63431C16.964 3.63637 16.9721 3.63912 16.9803 3.64255C17.058 3.67415 17.1194 3.72017 17.166 3.77719C17.2106 3.83627 17.22 3.90084 17.1931 3.97159C17.0776 4.24224 17.0445 4.5129 17.0918 4.78217C17.1377 5.05077 17.2505 5.22456 17.4301 5.30287C17.4726 5.32142 17.5145 5.3379 17.5564 5.35164C17.7907 5.42927 18.0197 5.43476 18.2446 5.36744C18.4735 5.29737 18.6997 5.15243 18.9252 4.92918C18.9502 4.90857 19.0057 4.85087 19.0955 4.75538C19.1839 4.66059 19.2508 4.5967 19.2913 4.56373C19.3238 4.539 19.3683 4.51702 19.4244 4.49847C19.4433 4.49229 19.4628 4.48611 19.4845 4.48061C19.5553 4.46069 19.6263 4.46412 19.6959 4.48817C19.7094 4.4916 19.7229 4.4971 19.7364 4.50328C19.8863 4.57197 19.9235 4.68188 19.8465 4.83026ZM17.971 11.1267C17.9203 11.1968 17.8021 11.3459 17.6137 11.5746C16.7352 12.6476 16.1915 13.2926 15.9842 13.5117C15.9591 13.5378 15.9275 13.5564 15.8896 13.566C15.8578 13.5749 15.8208 13.577 15.7789 13.5729C15.7444 13.5701 15.7134 13.5646 15.6843 13.5564C15.6356 13.5426 15.5945 13.52 15.5587 13.4911C15.4493 13.3963 15.4324 13.3015 15.5121 13.204L17.5469 10.7729C17.5766 10.7372 17.6097 10.7132 17.6475 10.7001C17.6705 10.6919 17.6942 10.6878 17.7198 10.6878C17.7529 10.6871 17.7853 10.6933 17.8163 10.705C17.8474 10.7166 17.8772 10.7345 17.9055 10.7599C17.9636 10.808 18.0008 10.8636 18.0197 10.9268C18.0385 10.9908 18.0216 11.0567 17.971 11.1267M15.1555 12.5968C15.1103 12.6105 15.0637 12.6098 15.0178 12.5961C14.9935 12.5885 14.9692 12.5775 14.9448 12.5625C14.8644 12.5137 14.8138 12.4594 14.7936 12.4016C14.7733 12.3426 14.7868 12.2788 14.8361 12.2093C15.0063 11.9661 15.2582 11.5656 15.5891 11.0079C15.5033 10.9681 15.3764 10.8952 15.2082 10.7928C15.0401 10.6898 14.7909 10.5091 14.4592 10.2529L14.3708 10.4047C14.3107 10.505 14.1107 10.8822 13.7738 11.5354C13.7434 11.5945 13.7022 11.6316 13.6502 11.646C13.6319 11.6515 13.6131 11.6543 13.5921 11.6536C13.5421 11.6536 13.4949 11.646 13.4517 11.6316C13.4253 11.6234 13.4003 11.6117 13.3774 11.5972C13.3179 11.5595 13.2794 11.5114 13.2646 11.4544C13.2504 11.396 13.2558 11.3404 13.2794 11.2909C13.5246 10.7585 13.7245 10.3628 13.8771 10.1052C14.0311 9.84831 14.1378 9.67521 14.1959 9.58728L14.9415 8.39957C14.9664 8.36591 15.0002 8.34118 15.0428 8.32744C15.0678 8.31851 15.0954 8.3137 15.1264 8.31164C15.1812 8.30889 15.2325 8.31576 15.2798 8.33225C15.3048 8.34049 15.3284 8.35217 15.3513 8.36591C15.4736 8.44216 15.5047 8.53352 15.4412 8.63794L14.753 9.76176C14.9664 9.94586 15.1602 10.0922 15.3352 10.2C15.5101 10.3072 15.6161 10.3731 15.6546 10.3972L15.8734 10.5311C16.0166 10.2584 16.2469 9.85381 16.565 9.32075C16.59 9.27885 16.6251 9.24931 16.6703 9.23282C16.6974 9.22183 16.7277 9.21633 16.7614 9.21427C16.8182 9.21221 16.8723 9.21977 16.9229 9.23832C16.9513 9.24725 16.979 9.2603 17.0046 9.27678C17.0782 9.32144 17.1099 9.38669 17.0972 9.4705C17.0843 9.55568 17.0593 9.62918 17.0168 9.68826L16.0841 11.2524L15.4419 12.3165C15.3486 12.4738 15.2527 12.5672 15.1555 12.5968M12.9566 7.81842C12.9357 7.81087 12.9141 7.80331 12.8931 7.79713C12.5824 7.70302 12.3096 7.6989 12.0726 7.78476C12.0044 7.80949 11.9396 7.84109 11.8781 7.88025C11.6012 8.05748 11.3925 8.38377 11.2534 8.85707C11.1136 9.33037 11.1271 9.73703 11.2912 10.0777C11.3763 10.255 11.5053 10.3697 11.6789 10.4233C11.8524 10.4748 12.157 10.4666 12.5926 10.3944C12.7432 10.3718 12.8405 10.3663 12.885 10.38H12.8863C12.9822 10.4095 13.016 10.4741 12.9857 10.5765C12.9553 10.6768 12.885 10.7476 12.7723 10.7867H12.7708C12.4049 10.8595 12.1239 10.8979 11.9301 10.9021C11.7355 10.9055 11.5749 10.8883 11.4445 10.8492C11.4277 10.8444 11.4114 10.8389 11.3952 10.8327C11.1541 10.7468 10.9725 10.5833 10.8496 10.3429C10.6226 9.87236 10.6024 9.31869 10.7901 8.68259C10.9772 8.0458 11.2764 7.62333 11.6856 7.41382C11.7633 7.37398 11.8422 7.341 11.9213 7.31421C12.2597 7.19812 12.6095 7.19469 12.9715 7.30528C13.0018 7.3149 13.0323 7.32452 13.0633 7.3362C13.2828 7.41451 13.5104 7.53609 13.7474 7.70096C13.7995 7.77446 13.8149 7.84247 13.7968 7.90429C13.7785 7.96543 13.7312 8.01076 13.6583 8.03962H13.657C13.5813 8.06778 13.5064 8.06984 13.4287 8.04649H13.4273C13.2665 7.94757 13.1093 7.87132 12.9566 7.81842M9.22874 5.11946C9.24494 5.17854 9.26115 5.23761 9.27804 5.29737C9.30971 5.4169 9.45227 5.84074 9.69202 6.57507C9.72241 6.66575 9.7062 6.73994 9.64468 6.7997C9.59207 6.85122 9.53264 6.88763 9.46774 6.90617C9.45896 6.90892 9.45025 6.91098 9.44147 6.91304C9.39082 6.92472 9.34489 6.92472 9.3037 6.91442C9.28344 6.90892 9.26453 6.90137 9.24629 6.89038C9.19152 6.85809 9.15377 6.81412 9.13216 6.7578C8.9093 6.18489 8.75059 5.75075 8.66482 5.45125C8.57831 5.15037 8.52226 4.94635 8.49802 4.8385C8.37301 4.36864 8.24604 3.90015 8.11705 3.43304C8.10159 3.36572 8.1259 3.29771 8.18803 3.2297C8.24334 3.17131 8.30689 3.12941 8.38111 3.10537C8.39131 3.10193 8.40212 3.0985 8.41292 3.09575C8.48316 3.0772 8.54124 3.07446 8.58716 3.08819C8.64727 3.10468 8.68779 3.14864 8.70737 3.21734C8.83028 3.65766 8.95049 4.10005 9.06868 4.54312C9.38271 4.51496 9.65083 4.47512 9.87295 4.42222C10.0978 4.36933 10.2336 4.33773 10.2823 4.32605C10.3755 4.30407 10.4693 4.28277 10.5632 4.26079C10.4666 3.95098 10.3369 3.47563 10.1708 2.84433C10.1492 2.76465 10.1749 2.6884 10.2458 2.61764C10.3073 2.55445 10.3795 2.50911 10.4633 2.48369C10.4747 2.48026 10.4869 2.47682 10.4991 2.47408C10.5497 2.46171 10.595 2.46309 10.6348 2.47751C10.6719 2.48919 10.7044 2.51254 10.732 2.54689C10.7901 2.61833 10.8238 2.69183 10.8374 2.76808C10.9927 3.39045 11.1433 4.01624 11.2892 4.64479C11.3858 5.07412 11.4803 5.50483 11.5729 5.93691C11.6417 6.24878 11.5803 6.43082 11.3932 6.48508C11.3837 6.48783 11.3743 6.48989 11.3648 6.49195C11.2797 6.50981 11.2094 6.50913 11.1541 6.48989C11.144 6.48714 11.1346 6.48302 11.1258 6.47821C11.067 6.44799 11.0306 6.38891 11.0157 6.30167C10.9677 5.98912 10.8664 5.49796 10.7029 4.83026C10.6969 4.83232 10.6902 4.83438 10.6841 4.83644C10.5848 4.8701 10.4349 4.90926 10.2363 4.9546C10.0243 5.00405 9.68797 5.05626 9.22874 5.11946M9.13689 7.67142C8.85932 8.01969 8.63916 8.26905 8.46965 8.42155C8.30081 8.57405 8.14474 8.68121 7.99961 8.74578C7.96112 8.76296 7.92255 8.77738 7.88413 8.78975C7.641 8.86875 7.39106 8.86325 7.12977 8.77532C7.10944 8.76914 7.08925 8.76158 7.06899 8.75403C6.48347 8.52116 5.99587 8.06915 5.59944 7.39527C5.2043 6.72139 5.08146 6.14368 5.26245 5.64084C5.44209 5.13938 5.804 4.75745 6.3484 4.50191C6.44295 4.45794 6.54425 4.41741 6.65163 4.381C6.88597 4.30063 7.15071 4.23812 7.44515 4.19553C7.47284 4.20034 7.49851 4.20652 7.52214 4.21477C7.59366 4.23881 7.64303 4.27659 7.67072 4.32674C7.70786 4.39474 7.70307 4.47099 7.65586 4.55549C7.60926 4.64135 7.53768 4.70455 7.44313 4.74783H7.44171C7.27159 4.7808 7.11289 4.82339 6.96701 4.87354C6.87922 4.90376 6.79547 4.93742 6.71714 4.97314C6.23494 5.19708 5.94927 5.49521 5.85607 5.86616C5.76355 6.23573 5.8689 6.6685 6.15728 7.17408C6.44632 7.68104 6.80223 8.01626 7.23175 8.18456C7.24593 8.19005 7.25944 8.19555 7.27362 8.20036C7.45191 8.26424 7.62074 8.26974 7.7835 8.21616C7.80781 8.2086 7.83273 8.19898 7.85711 8.18799C8.05364 8.10144 8.315 7.85827 8.65267 7.4571C8.7722 7.31902 8.85865 7.23796 8.90997 7.21598C8.91869 7.21186 8.92746 7.20911 8.93557 7.20637C8.97751 7.19263 9.016 7.19125 9.04909 7.20224C9.09502 7.21667 9.13277 7.25445 9.16188 7.31559C9.21658 7.43031 9.20712 7.54914 9.13689 7.67142M11.8997 3.67003C11.9308 3.4035 11.9767 3.13697 12.0382 2.86769C12.0536 2.78869 12.1084 2.72824 12.2036 2.68496C12.2246 2.67535 12.2447 2.66711 12.2643 2.66024C12.3367 2.63482 12.4028 2.62451 12.4636 2.6307C12.492 2.63344 12.5176 2.63894 12.5413 2.64787C12.5818 2.66161 12.6162 2.68497 12.6439 2.71588C12.6872 2.76671 12.6993 2.82853 12.6845 2.90204C12.6156 3.19467 12.567 3.45914 12.5372 3.69476C12.5068 3.93038 12.4866 4.14264 12.4757 4.33086C12.4535 4.78973 12.5136 5.19021 12.6507 5.53437C12.7627 5.81395 12.9228 5.99393 13.1322 6.07292C13.1808 6.09078 13.2322 6.10384 13.2855 6.11139C13.4226 6.13063 13.5489 6.12238 13.6644 6.08597C14.0709 5.95614 14.3424 5.47735 14.4822 4.64135C14.5883 4.00182 14.6322 3.51409 14.6132 3.17612C14.6092 3.15208 14.6139 3.1143 14.6213 3.06209C14.6301 3.01126 14.6767 2.96111 14.7631 2.91234C14.7902 2.89723 14.8172 2.88486 14.8435 2.87593C14.8523 2.87181 14.8611 2.86906 14.8699 2.867C14.9178 2.85326 14.9657 2.84914 15.0124 2.85464C15.0414 2.85876 15.0691 2.86563 15.0954 2.87593C15.1406 2.89242 15.1812 2.91784 15.2163 2.95218C15.2724 3.00508 15.298 3.06209 15.2933 3.12117C15.2527 3.71399 15.1988 4.17767 15.1427 4.5129C15.0812 4.84881 15.0278 5.10709 14.9772 5.29119C14.8394 5.84486 14.628 6.23367 14.3485 6.45898C14.256 6.53386 14.152 6.59156 14.0371 6.63277C13.8049 6.71727 13.5279 6.73375 13.2017 6.68636C13.0903 6.66987 12.9857 6.64445 12.8884 6.61011C12.6743 6.53454 12.494 6.41502 12.3468 6.25015C12.132 6.01247 11.9956 5.72053 11.9348 5.37569C11.843 4.85362 11.8295 4.28621 11.8997 3.67003M22.9834 10.9365C22.7315 9.55568 22.2757 8.21135 21.6341 6.95357C21.4768 6.63827 21.2883 6.33808 21.1188 6.02896C21.0317 5.88058 20.9405 5.71022 20.8581 5.57902L20.5563 5.13457C20.149 4.57953 19.6837 4.07051 19.1474 3.62813C18.3384 2.97829 17.4057 2.49262 16.4164 2.16221C16.0868 2.0523 15.7511 1.95956 15.4115 1.88331C14.7308 1.72944 14.0358 1.63327 13.3368 1.579C12.9884 1.55084 12.6325 1.53366 12.288 1.53023C11.9301 1.52405 11.587 1.54053 11.2405 1.56732C10.4633 1.63258 9.69337 1.79126 8.95184 2.03925C8.50679 2.18831 8.07255 2.36898 7.65242 2.58055C7.64431 2.58467 7.63695 2.58879 7.62885 2.59292C6.95209 2.95974 6.31801 3.39525 5.73451 3.89122C5.72229 3.90084 5.7102 3.91183 5.69872 3.92213C5.12535 4.43527 4.61337 5.02191 4.18055 5.66488C3.38229 6.8471 2.78455 8.16395 2.37401 9.53782C2.09306 10.4535 1.9114 11.4002 1.83636 12.3564C2.13419 12.0122 2.45707 11.6934 2.80217 11.3987C3.35933 10.9247 3.97322 10.4995 4.65464 10.1973C5.33471 9.89434 6.08164 9.73428 6.82654 9.74047C7.57212 9.74321 8.30352 9.92594 8.98082 10.1938C9.01803 10.2048 9.05585 10.2151 9.08691 10.2275C9.12203 10.2385 9.16654 10.2584 9.2003 10.2742C9.22738 10.2866 9.2544 10.2996 9.27939 10.3141C9.32119 10.2172 9.36644 10.1231 9.40433 10.0262C9.49212 9.84763 9.59275 9.67521 9.68723 9.50485C9.89935 9.19779 10.0236 9.05422 10.0418 9.06452C10.0587 9.07483 10.0034 9.25686 9.85606 9.60033C9.73788 9.89846 9.63657 10.209 9.57174 10.5201C9.81081 10.7365 9.91691 10.9818 9.93514 11.1555C9.94933 11.2613 9.92772 11.3417 9.91556 11.3919C9.89597 11.4358 9.87977 11.4578 9.88719 11.4647C9.88719 11.4647 9.87909 11.4942 9.8487 11.5478C9.81831 11.6014 9.76016 11.6777 9.65616 11.7449C9.62111 11.7676 9.58464 11.7875 9.54682 11.8047C9.58127 11.9744 9.64198 12.1337 9.72099 12.2842H9.72174C10.1999 12.2678 10.6861 12.346 11.1366 12.5198C11.947 12.8317 12.6338 13.419 13.0897 14.1643V14.1651H13.0903C13.7414 14.3573 14.3938 14.5394 15.0549 14.6768C15.265 14.7276 15.265 14.7276 15.0434 14.7365C14.4755 14.7269 13.9089 14.7008 13.3463 14.6549C13.3726 14.7132 13.397 14.7729 13.4199 14.8327C13.5638 15.0615 13.6434 15.341 13.6272 15.6234C13.6238 15.6935 13.615 15.7635 13.6009 15.8322C13.6002 15.8426 13.6002 15.8528 13.5996 15.8625C13.5962 15.9539 13.5543 16.052 13.5293 16.1454C13.4887 16.2354 13.4354 16.3295 13.3686 16.4065C13.0768 16.7245 12.6433 16.774 12.313 16.6923C12.022 16.6256 11.7592 16.4814 11.5465 16.2808C11.508 16.2444 11.4715 16.2066 11.4364 16.1667C11.2196 15.903 11.0805 15.6783 10.8752 15.4633C10.7868 15.3672 10.6936 15.2765 10.595 15.1933C10.4761 15.0917 10.3484 15.0024 10.212 14.9289C10.1884 14.9165 10.1641 14.9041 10.1398 14.8925C10.112 14.8794 10.0837 14.8671 10.0554 14.8548C9.98107 14.8245 9.90408 14.799 9.825 14.7798C9.82439 14.7798 9.82439 14.7798 9.82371 14.7791V14.7798C9.82439 14.7806 9.82439 14.7806 9.825 14.7806C9.85951 14.8334 9.89192 14.8877 9.92231 14.9426C9.92501 14.9474 9.92704 14.9515 9.92974 14.9564C9.93785 14.9708 9.94588 14.9859 9.95203 15.0003C9.97229 15.0374 9.99113 15.0753 10.008 15.1137C10.0256 15.1508 10.0425 15.19 10.0587 15.2284C10.0594 15.2291 10.0594 15.2304 10.0594 15.2311C10.0755 15.2703 10.0905 15.3088 10.1047 15.3479C10.1195 15.3857 10.133 15.4255 10.1458 15.4654C10.1465 15.4675 10.1472 15.4695 10.1485 15.4716C10.16 15.5087 10.1715 15.5457 10.1823 15.5835C10.1911 15.6117 10.1999 15.6399 10.2066 15.6687C10.2133 15.6914 10.2195 15.714 10.2249 15.7368C10.2485 15.8281 10.2701 15.9195 10.2877 16.0108C10.2924 16.0321 10.2977 16.0541 10.3012 16.0754C10.3086 16.1118 10.3154 16.1468 10.3221 16.1839C10.3396 16.1915 12.0901 16.9581 12.9256 17.3222C13.2207 17.1361 13.5131 16.9485 13.8062 16.7637L13.8278 16.75L13.8508 16.7417C14.1317 16.6359 14.4113 16.5301 14.6916 16.4265C14.7321 16.4113 14.7719 16.3969 14.8098 16.3845C15.1751 16.2602 15.4257 16.2341 15.5479 16.2719C15.7715 16.3398 15.5695 16.6174 14.8611 16.8853L14.0426 17.1937L13.0701 17.8031L12.9634 17.8696L12.9626 17.869L12.962 17.8696L12.8513 17.8195C12.0611 17.4582 10.4619 16.7273 10.4619 16.7273C10.4423 16.7177 10.4213 16.7095 10.4017 16.6998C10.4052 16.7267 10.4086 16.7541 10.4119 16.7809C10.4531 17.1017 10.4862 17.4218 10.5247 17.7378C10.5382 17.8429 10.551 17.95 10.5659 18.0579C10.5727 18.1095 10.5801 18.1602 10.5882 18.2104C10.5923 18.2365 10.5963 18.2619 10.6016 18.2873C10.6051 18.3128 10.6105 18.3374 10.6158 18.3622C10.6172 18.3704 10.6185 18.3787 10.6199 18.387C10.6456 18.3987 10.988 18.5552 11.1223 18.617C11.3108 18.6809 11.4999 18.7434 11.6897 18.8032C12.0024 18.9055 12.3171 18.9997 12.6331 19.0856C12.9485 19.1686 13.2727 19.2531 13.5833 19.2662L13.6873 19.2566L13.8015 19.2168L14.0338 19.1343C14.1912 19.0828 14.3377 19.0093 14.491 18.9482L14.9442 18.7558C15.0941 18.6885 15.2386 18.6095 15.3865 18.5367C15.6776 18.3821 15.9828 18.2516 16.2618 18.0771L17.1039 17.5543C17.1735 17.5111 17.2315 17.4829 17.2754 17.4692C17.3106 17.4575 17.3369 17.4541 17.3538 17.4575C17.4092 17.4692 17.3632 17.555 17.1843 17.6732L16.3502 18.2248C16.1759 18.3402 15.9923 18.4391 15.8079 18.5367C15.6425 18.6054 15.4783 18.685 15.3217 18.7517C14.9881 18.8945 14.0905 19.4015 14.0905 19.4015H14.0892C13.8947 19.4634 13.6967 19.5183 13.4922 19.5259C13.3253 19.5183 13.1694 19.4977 13.0187 19.4702C12.9978 19.4661 12.9776 19.4626 12.9573 19.4585L12.9755 19.4668C12.9762 19.4668 12.9776 19.4675 12.9782 19.4675H12.9769C12.9641 19.4654 12.9512 19.4626 12.9384 19.4599C12.8715 19.4475 12.8054 19.4318 12.7405 19.4111C12.7142 19.4029 12.6878 19.3933 12.6622 19.383C12.6581 19.3816 12.6527 19.3795 12.6466 19.3775C12.6412 19.3754 12.6338 19.3727 12.6264 19.3706C12.3961 19.2957 11.4466 19.0567 11.0103 18.9393H11.0089C11.4796 19.4984 12.394 20.0301 13.0666 20.6168C13.0714 20.6201 13.0755 20.6236 13.0802 20.627C13.0883 20.6332 13.0964 20.64 13.1039 20.6469C13.2011 20.7253 13.297 20.8097 13.3901 20.9011C13.4841 20.9966 13.5766 21.1044 13.6556 21.2281C13.6556 21.2281 13.6556 21.2288 13.6563 21.2288C13.6576 21.2294 13.6576 21.2301 13.6583 21.2315C13.7002 21.2954 13.7373 21.3635 13.7704 21.4348C13.7758 21.4458 13.7805 21.4575 13.7846 21.4692C13.7914 21.4837 13.7974 21.4981 13.8028 21.5131C13.8076 21.5248 13.8122 21.5358 13.8157 21.5482C13.8224 21.5674 13.8291 21.5867 13.8352 21.6059C13.8406 21.6251 13.8467 21.6457 13.8521 21.6656C13.8589 21.6917 13.865 21.7178 13.8697 21.744C13.8704 21.7488 13.8717 21.7536 13.8717 21.7584C13.8758 21.7783 13.8791 21.7982 13.8818 21.8181C13.8839 21.8312 13.8859 21.8449 13.8866 21.8587C13.8886 21.8677 13.8886 21.8752 13.8886 21.8827C13.8893 21.8896 13.89 21.8958 13.89 21.902C13.8947 21.9775 13.892 22.0531 13.8845 22.1273C13.8805 22.1685 13.8744 22.209 13.8663 22.2502C13.8616 22.2777 13.8555 22.3052 13.8487 22.332C13.8542 22.3361 13.8589 22.3409 13.8636 22.345C13.8683 22.3333 13.8724 22.321 13.8771 22.31C13.8912 22.2791 13.9068 22.2495 13.9217 22.2194V22.2186C14.2991 21.4657 14.4782 21.3256 14.6517 21.1559C15.0698 20.7548 17.0668 19.6275 17.5355 19.2964C18.4708 18.6356 19.2022 17.7584 19.3258 17.588C19.3569 17.5543 19.398 17.4726 19.4344 17.4176L19.521 17.2466C19.5871 17.1216 19.6432 16.9966 19.7046 16.8722C19.9302 16.3742 20.4589 15.2511 20.3044 14.0929C20.1497 12.9347 18.8577 10.933 18.8456 10.9007C18.6673 10.6809 18.5181 10.5222 18.416 10.4109C18.3512 10.3408 18.3087 10.2948 18.2783 10.2618C18.2824 10.266 18.2864 10.2701 18.2912 10.2742C18.2871 10.2701 18.2831 10.266 18.2797 10.2618C18.3121 10.2934 18.3553 10.3381 18.4229 10.4068C18.5444 10.5291 18.7301 10.7084 18.9604 10.9673C19.4095 11.4839 20.1416 12.2684 20.6373 13.6079C20.8879 14.2983 20.9823 15.0594 20.8845 15.804C20.7839 16.548 20.4941 17.2624 20.0801 17.8799C19.6722 18.503 19.1509 19.0374 18.5822 19.5018C18.2978 19.734 17.9974 19.9462 17.6861 20.1406C17.6448 20.1675 17.603 20.1929 17.5604 20.2183C17.5604 20.2183 17.5591 20.2183 17.5591 20.219C17.5584 20.2196 17.5577 20.2196 17.5577 20.2203C17.5564 20.221 17.5557 20.221 17.555 20.2218C17.4044 20.3289 17.2511 20.4326 17.0972 20.5336C16.6628 20.8152 16.2158 21.0749 15.758 21.3146C15.5162 21.4891 15.2845 21.6732 15.0684 21.8697C14.8273 22.0922 14.5869 22.356 14.5005 22.582C14.4755 22.6383 14.4775 22.6782 14.4755 22.705C14.4782 22.7276 14.4856 22.7346 14.4971 22.7565C14.5295 22.795 14.6234 22.8499 14.7395 22.8891C14.7557 22.8946 14.7726 22.8994 14.7902 22.9042C14.9185 22.9461 15.1103 22.9688 15.2304 22.9839C15.3136 22.9846 15.4176 22.9955 15.4851 22.988C15.556 22.9778 15.6148 22.9818 15.6965 22.9646C15.8896 22.9344 16.0855 22.8843 16.2807 22.819C16.3975 22.7798 16.515 22.7352 16.6305 22.6858C17.2505 22.424 17.8461 22.0676 18.412 21.6677C19.5405 20.864 20.5731 19.8968 21.4396 18.8087C21.8732 18.2653 22.2602 17.6862 22.5668 17.0742C22.8727 16.4581 23.0895 15.8274 23.1226 15.1529C23.1488 14.7942 23.182 14.4329 23.2022 14.0765L23.2049 13.0302C23.1678 12.3316 23.1226 11.6254 22.9834 10.9365" fill="#D10E0E"/>
<path d="M12.7117 22.49C12.691 22.5012 12.6766 22.5224 12.6732 22.5468C12.585 22.6645 12.4603 22.7526 12.3216 22.7944C12.2382 22.8213 12.1722 22.8266 12.0676 22.8222L11.9761 22.8075C11.9323 22.7948 11.8885 22.7801 11.8465 22.7639C11.6977 22.6939 11.5811 22.5723 11.5171 22.4273C11.4983 22.392 11.4881 22.3538 11.4794 22.3151C11.4689 22.2768 11.4611 22.2392 11.4617 22.1995L11.4597 22.1411L11.4592 22.127L11.4597 22.1069L11.4607 22.101L11.465 22.0779C11.4717 22.0451 11.4717 22.0211 11.4848 21.981C11.5426 21.7639 11.702 21.6169 11.8831 21.5585C11.9699 21.5301 12.0619 21.5223 12.15 21.5365C12.206 21.5429 12.2811 21.5689 12.3398 21.5997C12.3986 21.6321 12.4483 21.6761 12.4935 21.7227C12.5344 21.7707 12.5663 21.8241 12.5885 21.8809C12.5779 21.8765 12.5677 21.8726 12.5571 21.8687C12.5966 21.9417 12.6188 22.025 12.6197 22.1146V22.128C12.64 22.1216 12.6601 22.1216 12.679 22.1275C12.7141 22.1382 12.746 22.1691 12.7657 22.2195C12.7855 22.2647 12.7705 22.397 12.7117 22.49Z" fill="#F7F7F4"/>
<path d="M9.12834 7.67143C8.85077 8.01971 8.63061 8.26906 8.4611 8.42156C8.29226 8.57406 8.13626 8.68122 7.99106 8.7458C7.95257 8.76297 7.91407 8.7774 7.87558 8.78976C7.63245 8.86876 7.38251 8.86326 7.12122 8.77533C7.10163 8.76847 7.08205 8.7616 7.06172 8.75404C6.4762 8.52117 5.98867 8.06917 5.59224 7.39528C5.19717 6.7214 5.07426 6.14369 5.25518 5.64085C5.43489 5.13939 5.79687 4.75746 6.34113 4.50192C6.43507 4.45795 6.53637 4.41811 6.64308 4.38102C6.87742 4.30065 7.14216 4.23813 7.4366 4.19554C7.46429 4.20035 7.48996 4.20654 7.51359 4.21478C7.58511 4.23882 7.63448 4.2766 7.66217 4.32675C7.69931 4.39476 7.69459 4.47101 7.64731 4.5555C7.60071 4.64136 7.52913 4.70456 7.43458 4.74784H7.43316C7.26304 4.78081 7.10434 4.8234 6.95846 4.87355C6.87067 4.90377 6.78692 4.93743 6.70858 4.97315C6.22639 5.19709 5.94072 5.49522 5.84752 5.86617C5.755 6.23574 5.86035 6.66851 6.14873 7.17409C6.43777 7.68105 6.79368 8.01627 7.2232 8.18457C7.23738 8.19007 7.25089 8.19556 7.26507 8.20037C7.44336 8.26426 7.61219 8.26975 7.77495 8.21617C7.79994 8.20861 7.82493 8.199 7.84991 8.18801C8.04637 8.10145 8.3078 7.85828 8.64547 7.45711C8.765 7.31903 8.85138 7.23798 8.90277 7.21599C8.91088 7.21256 8.91891 7.20912 8.92709 7.20638C8.96896 7.19264 9.00745 7.19126 9.04054 7.20226C9.08647 7.21668 9.12422 7.25446 9.15333 7.3156C9.20803 7.43032 9.19857 7.54916 9.12834 7.67143Z" fill="#D10E0E"/>
<path d="M11.3847 6.4851C11.3751 6.48785 11.3658 6.48991 11.3563 6.49197C11.2711 6.50983 11.2009 6.50914 11.1456 6.48991C11.1361 6.48647 11.1273 6.48304 11.1186 6.47823C11.0598 6.448 11.0233 6.38893 11.0085 6.30169C10.9606 5.98913 10.8593 5.49797 10.6958 4.82959C10.6951 4.82959 10.6951 4.82959 10.6944 4.83027C10.6883 4.83234 10.6816 4.8344 10.6756 4.83646C10.5762 4.87012 10.4264 4.90927 10.2278 4.95461C10.0157 5.00407 9.67943 5.05628 9.22019 5.11947C9.23633 5.17855 9.25261 5.23763 9.26949 5.29739C9.30117 5.41692 9.44373 5.84075 9.68348 6.57509C9.71387 6.66576 9.69766 6.73995 9.63614 6.79971C9.58353 6.85123 9.5241 6.88764 9.4592 6.90619C9.45042 6.90894 9.44164 6.911 9.43293 6.91306C9.38228 6.92474 9.33635 6.92474 9.29516 6.91443C9.27557 6.90894 9.25659 6.90069 9.23903 6.89039C9.1844 6.8581 9.14651 6.81414 9.12497 6.75781C8.90204 6.18491 8.7434 5.75077 8.65763 5.45126C8.57119 5.15039 8.51513 4.94637 8.49075 4.83852C8.36588 4.36865 8.23892 3.90017 8.10993 3.43305C8.09433 3.36573 8.11871 3.29772 8.18084 3.22972C8.23554 3.17133 8.29902 3.13011 8.37257 3.10538C8.38277 3.10195 8.39357 3.09851 8.40438 3.09577C8.47461 3.07722 8.53269 3.07447 8.57862 3.08821C8.63872 3.1047 8.67918 3.14866 8.69876 3.21735C8.82174 3.65768 8.94195 4.10006 9.06014 4.54314C9.3741 4.51497 9.64228 4.47513 9.8644 4.42224C10.0893 4.36934 10.2251 4.33774 10.2737 4.32606C10.3669 4.30408 10.4607 4.28279 10.5547 4.26081H10.556C10.4594 3.951 10.3298 3.47564 10.1636 2.84435C10.142 2.76466 10.1676 2.68841 10.2385 2.61766C10.3 2.55446 10.3717 2.50981 10.4547 2.48371C10.4661 2.48027 10.4784 2.47684 10.4905 2.47409C10.5412 2.46173 10.5864 2.4631 10.6263 2.47752C10.6633 2.4892 10.6958 2.51256 10.7235 2.54691C10.7815 2.61835 10.8153 2.69185 10.8289 2.7681C10.9841 3.39046 11.1348 4.01626 11.2807 4.6448C11.3772 5.07414 11.4719 5.50484 11.5644 5.93693C11.6332 6.24879 11.5717 6.43083 11.3847 6.4851Z" fill="#D10E0E"/>
<path d="M15.2848 3.12117C15.2442 3.71399 15.1903 4.17767 15.1342 4.5129C15.0727 4.84881 15.0193 5.10709 14.9687 5.29119C14.8309 5.84486 14.6195 6.23367 14.34 6.45898C14.2475 6.53386 14.1435 6.59156 14.0286 6.63278C13.7964 6.71727 13.5194 6.73375 13.1932 6.68636C13.0819 6.66987 12.9772 6.64445 12.8799 6.61011C12.6665 6.53454 12.4868 6.41433 12.3397 6.25015C12.1249 6.01247 11.9884 5.72053 11.9277 5.37569C11.8358 4.85362 11.8223 4.28621 11.8926 3.67003C11.9236 3.4035 11.9696 3.13697 12.031 2.86769C12.0466 2.78869 12.1012 2.72824 12.1965 2.68496C12.2167 2.67535 12.2363 2.6671 12.2558 2.66023C12.3282 2.63482 12.3944 2.62451 12.4551 2.6307C12.4835 2.63344 12.5091 2.63894 12.5328 2.64787C12.5733 2.66161 12.6077 2.68496 12.6355 2.71588C12.6787 2.76671 12.6908 2.82853 12.676 2.90204C12.6071 3.19467 12.5585 3.45914 12.5287 3.69476C12.4983 3.93038 12.478 4.14264 12.4672 4.33086C12.445 4.78973 12.5051 5.19021 12.6422 5.53437C12.7542 5.81395 12.9143 5.99393 13.1237 6.07292C13.1724 6.09078 13.2236 6.10384 13.277 6.11139C13.4141 6.13063 13.5404 6.12238 13.6559 6.08598C14.0638 5.95752 14.3352 5.47804 14.4751 4.64135C14.5811 4.00182 14.6249 3.51409 14.6061 3.17612C14.6021 3.15208 14.6068 3.1143 14.6141 3.06209C14.623 3.01126 14.6696 2.96111 14.756 2.91234C14.783 2.89723 14.8094 2.88486 14.835 2.87593C14.8438 2.8725 14.8526 2.86975 14.8613 2.867C14.9093 2.85326 14.9572 2.84914 15.0039 2.85464C15.0329 2.85876 15.0606 2.86563 15.0869 2.87593C15.1321 2.89242 15.1727 2.91783 15.2078 2.95218C15.2638 3.00508 15.2895 3.06209 15.2848 3.12117Z" fill="#D10E0E"/>
<path d="M19.838 4.83026C19.3666 5.77411 18.8243 6.86771 18.2313 8.10281C18.1922 8.18662 18.128 8.24776 18.0415 8.2876C18.0321 8.29172 18.0226 8.29515 18.0131 8.2979C17.9524 8.31782 17.8841 8.31508 17.8086 8.28897C17.7836 8.28073 17.7566 8.26905 17.7295 8.25531C17.61 8.19486 17.5891 8.07946 17.6694 7.90772C17.9287 7.35612 18.1219 6.94189 18.2448 6.67055C18.3677 6.39716 18.5062 6.10452 18.6608 5.78853C18.6602 5.78853 18.6595 5.78922 18.6588 5.78922C18.5271 5.85379 18.4035 5.90531 18.2881 5.94447C18.1388 5.9953 18.0031 6.02415 17.8801 6.03239C17.7214 6.04201 17.5465 6.01453 17.3534 5.95133C17.2771 5.92523 17.198 5.89432 17.1163 5.85791C16.8266 5.73014 16.6341 5.55154 16.5423 5.32004C16.5423 5.32073 16.5415 5.32073 16.5415 5.32142C16.1202 6.25359 15.8818 6.79352 15.8021 6.95014C15.7474 7.05936 15.6778 7.12737 15.5928 7.15416C15.5252 7.17614 15.4482 7.17133 15.3604 7.14179C15.3428 7.13561 15.3253 7.12874 15.3078 7.12118C15.1734 7.06211 15.1375 6.95907 15.2004 6.81C15.4097 6.33464 15.6238 5.8586 15.842 5.38049C16.0479 4.91338 16.2127 4.54587 16.3343 4.28002C16.4005 4.13371 16.4667 3.98739 16.5334 3.84107C16.5666 3.76826 16.6301 3.70781 16.7192 3.66453C16.7327 3.65766 16.7462 3.65217 16.7591 3.64667C16.8253 3.62125 16.888 3.61713 16.9468 3.63431C16.9555 3.63637 16.9636 3.63911 16.9718 3.64255C17.0495 3.67415 17.1109 3.72017 17.1575 3.77719C17.2021 3.83626 17.2115 3.90084 17.1845 3.97159C17.0691 4.24224 17.036 4.51289 17.0832 4.78217C17.1292 5.05076 17.2419 5.22456 17.4216 5.30287C17.4641 5.32142 17.506 5.3379 17.5479 5.35164C17.7822 5.42926 18.0112 5.43476 18.2361 5.36744C18.4657 5.29806 18.6919 5.15243 18.9181 4.92918C18.9431 4.90857 18.9984 4.85087 19.0883 4.75538C19.1768 4.66059 19.2437 4.5967 19.2842 4.56373C19.3159 4.539 19.3598 4.51702 19.4159 4.49847C19.4348 4.49229 19.4543 4.4861 19.476 4.48061C19.5468 4.46069 19.6178 4.46412 19.6874 4.48816C19.7009 4.4916 19.7144 4.4971 19.7279 4.50328C19.8778 4.57197 19.915 4.68188 19.838 4.83026Z" fill="#D10E0E"/>
<path d="M13.7883 7.9043C13.7699 7.96543 13.7227 8.01077 13.6498 8.03962H13.6485C13.5728 8.06779 13.4979 8.06985 13.4202 8.04649C13.2588 7.94689 13.1014 7.87064 12.9481 7.81843C12.9272 7.81087 12.9056 7.80332 12.8846 7.79713C12.574 7.70302 12.3011 7.6989 12.0641 7.78477C11.9959 7.8095 11.9311 7.8411 11.8696 7.88025C11.5927 8.05748 11.384 8.38378 11.2448 8.85707C11.105 9.33037 11.1186 9.73704 11.2827 10.0778C11.3678 10.255 11.4968 10.3697 11.6704 10.4233C11.8439 10.4748 12.1485 10.4666 12.5841 10.3944C12.7346 10.3718 12.832 10.3663 12.8765 10.38H12.8779C12.9737 10.4095 13.0075 10.4741 12.9772 10.5765C12.9468 10.6768 12.8765 10.7476 12.7638 10.7867H12.7624C12.3964 10.8596 12.1154 10.898 11.9216 10.9021C11.727 10.9055 11.5664 10.8883 11.436 10.8492C11.4191 10.8444 11.4029 10.8389 11.3867 10.8327C11.1462 10.7461 10.9653 10.5833 10.8423 10.3429C10.6154 9.87236 10.5952 9.31869 10.783 8.68259C10.97 8.0458 11.2692 7.62334 11.6785 7.41382C11.7561 7.37467 11.8338 7.3417 11.9128 7.31422C12.2512 7.19813 12.601 7.19469 12.963 7.30529C12.9933 7.31491 13.0238 7.32452 13.0548 7.3362C13.2743 7.41451 13.5019 7.5361 13.739 7.70096C13.791 7.77446 13.8065 7.84247 13.7883 7.9043Z" fill="#D10E0E"/>
<path d="M17.0887 9.47051C17.0758 9.55569 17.0508 9.62919 17.0083 9.68827L16.0756 11.2524L15.4334 12.3165C15.3401 12.4738 15.2442 12.5672 15.147 12.5967C15.1018 12.6104 15.0552 12.6098 15.0093 12.5961C14.9856 12.5885 14.962 12.5775 14.9376 12.5624C14.8573 12.5136 14.8067 12.4594 14.7864 12.4016C14.7661 12.3426 14.7797 12.2787 14.829 12.2093C14.9991 11.9661 15.251 11.5657 15.5819 11.0079C15.4962 10.968 15.3692 10.8952 15.2011 10.7929C15.0329 10.6898 14.783 10.5092 14.4514 10.2522L14.4507 10.2529L14.3623 10.4047C14.3022 10.505 14.1022 10.8822 13.7653 11.5354C13.7349 11.5944 13.6936 11.6315 13.6417 11.646C13.6234 11.6515 13.6046 11.6543 13.5836 11.6536C13.5336 11.6536 13.4864 11.646 13.4432 11.6315C13.4175 11.6227 13.3931 11.6116 13.3701 11.5972C13.3108 11.5595 13.2723 11.5113 13.2574 11.4544C13.2432 11.396 13.2487 11.3403 13.2723 11.2909C13.5174 10.7585 13.7173 10.3628 13.87 10.1052C14.0239 9.84832 14.1307 9.67522 14.1887 9.58729L14.9343 8.39958C14.9593 8.36592 14.9924 8.34188 15.0343 8.32745C15.0592 8.31852 15.0869 8.31371 15.1179 8.31165C15.1727 8.30891 15.224 8.31577 15.2713 8.33226C15.2963 8.3405 15.3199 8.35218 15.3428 8.36592C15.4651 8.44217 15.4962 8.53353 15.4326 8.63795L14.7445 9.76177C14.9579 9.94587 15.1517 10.0922 15.3267 10.2C15.5016 10.3072 15.6076 10.3731 15.6461 10.3972L15.8649 10.5311L15.8662 10.5318C16.0088 10.2591 16.2397 9.85451 16.5578 9.32076C16.5821 9.27886 16.6173 9.25001 16.6618 9.23283C16.6888 9.22184 16.7192 9.21635 16.7529 9.21428C16.8097 9.21222 16.8638 9.21978 16.9144 9.23833C16.9428 9.24726 16.9705 9.26031 16.9961 9.2768C17.0697 9.32145 17.1014 9.38671 17.0887 9.47051Z" fill="#D10E0E"/>
<path d="M17.9625 11.1267C17.9119 11.1968 17.7937 11.3458 17.6053 11.5747C16.7266 12.6476 16.183 13.2926 15.9757 13.5117C15.9507 13.5379 15.9189 13.5564 15.8812 13.566C15.8494 13.5749 15.8122 13.577 15.7703 13.5729C15.7359 13.5701 15.7048 13.5646 15.6759 13.5564C15.6279 13.542 15.5873 13.52 15.5516 13.4911C15.4422 13.3963 15.4253 13.3015 15.5049 13.204L17.5397 10.7729C17.5688 10.7379 17.6019 10.7139 17.639 10.7001C17.662 10.6919 17.6856 10.6878 17.7113 10.6878C17.7444 10.6871 17.7768 10.6933 17.8079 10.7049C17.8389 10.7166 17.8686 10.7345 17.897 10.7599C17.9551 10.808 17.9922 10.8636 18.0112 10.9268C18.03 10.9908 18.0132 11.0566 17.9625 11.1267Z" fill="#D10E0E"/>
<path d="M12.387 21.9363C12.3848 22.0389 12.3011 22.12 12.2005 22.1176C12.0999 22.1153 12.0199 22.0306 12.0223 21.9279C12.0245 21.8256 12.1081 21.7446 12.2088 21.747C12.3094 21.7493 12.3893 21.834 12.387 21.9363Z" fill="#D10E0E"/>
<path d="M9.5879 11.2751C9.57237 11.3074 9.56021 11.339 9.55278 11.3685C9.55143 11.3706 9.55008 11.3733 9.54873 11.3761C9.5413 11.3884 9.51901 11.4214 9.46769 11.4551C9.44608 11.4688 9.42379 11.4805 9.40218 11.4908C9.31844 11.5286 9.21646 11.5478 9.10098 11.5485C9.08612 11.5485 9.07194 11.5478 9.05775 11.5471H9.0537C8.97604 11.543 8.895 11.5299 8.80923 11.5162C8.73427 11.5045 8.65728 11.4922 8.57488 11.4846C8.25477 11.4468 7.92656 11.4276 7.60036 11.4276C7.54161 11.4276 7.48285 11.4283 7.42207 11.4296C7.37277 11.431 7.32415 11.4324 7.2762 11.4345C7.17692 11.4386 7.07427 11.4448 6.96352 11.453C6.42729 11.4935 5.91201 11.5787 5.43049 11.7072H5.42914L5.40212 11.7147C5.39875 11.7154 5.39537 11.7168 5.39199 11.7175L5.37916 11.7209L5.37714 11.7216C5.33526 11.7333 5.29339 11.7456 5.25085 11.758C5.24207 11.7601 5.23329 11.7628 5.22451 11.7656L5.20762 11.7711L5.17723 11.78C4.44246 12.0067 3.76307 12.3549 3.16066 12.8145C2.79935 13.0893 2.46978 13.4046 2.18209 13.7515C2.12806 13.8167 2.07268 13.8861 2.01866 13.9583L2.01731 13.9596L2.0065 13.9741C2.00582 13.9747 2.00515 13.9754 2.00515 13.9761L2.0038 13.9782C1.99637 13.9878 1.98894 13.9974 1.98151 14.007L1.94032 14.0627V14.064C1.87818 14.1506 1.82213 14.233 1.7708 14.3148L1.7627 14.3278C1.75797 14.3347 1.75325 14.3416 1.74784 14.3484C1.74244 14.356 1.73636 14.3629 1.73028 14.3697C1.67491 14.4377 1.60197 14.4975 1.55807 14.4975C1.53106 14.4975 1.48716 14.4693 1.43989 14.4212L1.43854 14.4199L1.43719 14.4185C1.35074 14.3326 1.30144 14.2124 1.28523 14.0489C1.27578 13.9102 1.29671 13.7638 1.34804 13.6168C1.39599 13.4822 1.47028 13.3531 1.55807 13.2514L1.57293 13.237L1.58846 13.215C1.70665 13.0488 2.1544 12.5013 2.1544 12.5013C2.41643 12.2059 2.70413 11.9242 3.01141 11.6625C3.61382 11.1494 4.19258 10.7736 4.78216 10.5119C5.4109 10.2316 6.1011 10.0839 6.77712 10.0839H6.81764C7.45111 10.086 8.13524 10.2309 8.85042 10.514L8.86461 10.5195L8.87879 10.5236L8.89972 10.5298C8.91998 10.5359 8.94565 10.5428 8.95578 10.5476L8.98009 10.5559C8.98347 10.5572 9.0017 10.5634 9.0537 10.5875C9.06856 10.5943 9.09017 10.604 9.10503 10.6129L9.11178 10.617L9.11854 10.6204C9.15095 10.6369 9.18134 10.6555 9.21376 10.6775C9.26171 10.7097 9.30223 10.742 9.336 10.7736L9.33802 10.775L9.33937 10.7764C9.50956 10.9309 9.58182 11.0965 9.59195 11.192V11.1968L9.59263 11.2023C9.59668 11.2284 9.5933 11.2504 9.5879 11.2751ZM9.9276 11.1556C9.90936 10.9818 9.80333 10.7365 9.56426 10.5201C9.56359 10.5195 9.56359 10.5195 9.56291 10.5195C9.51564 10.4748 9.46093 10.4322 9.40218 10.3924C9.36031 10.3635 9.31709 10.3374 9.27184 10.3141C9.27116 10.3141 9.27116 10.3134 9.27049 10.3134C9.24618 10.299 9.21916 10.2866 9.19282 10.2742C9.15906 10.2584 9.11448 10.2385 9.07937 10.2275C9.07126 10.2241 9.06248 10.2213 9.0537 10.2186C9.02872 10.2097 9.00103 10.2021 8.97334 10.1939C8.8457 10.1437 8.71671 10.0963 8.58569 10.053C8.06365 9.87786 7.51595 9.76177 6.95879 9.74322C6.91219 9.74185 6.86559 9.74048 6.81899 9.74048C6.71634 9.73979 6.61369 9.74185 6.51036 9.74803C6.43202 9.75215 6.35368 9.75834 6.27602 9.76589C6.27264 9.76658 6.26926 9.76658 6.26589 9.76727C5.88972 9.80436 5.51828 9.88336 5.15833 10.0001C4.98476 10.0572 4.8139 10.1231 4.64709 10.1973C3.96567 10.4995 3.35178 10.9248 2.79463 11.3987C2.4529 11.6907 2.13279 12.006 1.83699 12.3467C1.83429 12.3501 1.83159 12.3529 1.82888 12.3563V12.357V12.3577C1.79579 12.3955 1.76338 12.4333 1.73096 12.4724V12.4731C1.73028 12.4738 1.73028 12.4738 1.72961 12.4745C1.71408 12.493 1.69787 12.5123 1.68234 12.5315V12.5322V12.5329C1.55402 12.6881 1.43246 12.8481 1.31495 13.0137L1.31292 13.0158C1.19339 13.1511 1.09479 13.3201 1.03063 13.5001C0.967822 13.6807 0.934055 13.8765 0.948913 14.0785C0.967822 14.2784 1.03063 14.4947 1.20149 14.6644C1.20959 14.6727 1.21702 14.6802 1.22513 14.6878C1.22918 14.6911 1.23256 14.6946 1.23593 14.6974C1.23999 14.7015 1.24471 14.7056 1.24876 14.7091C1.2643 14.7227 1.27983 14.7352 1.29536 14.7462C1.40274 14.8245 1.50337 14.8478 1.59522 14.8389H1.59589C1.67828 14.8307 1.75257 14.797 1.81673 14.753V14.7523C1.81943 14.7503 1.82213 14.7482 1.82483 14.7469C1.82753 14.7455 1.83024 14.7427 1.83361 14.7407C1.83969 14.7365 1.84644 14.7311 1.8532 14.7262C1.87211 14.7111 1.88899 14.696 1.9052 14.6809C1.93221 14.6555 1.95652 14.6301 1.97678 14.606C1.98489 14.5964 1.99232 14.5875 1.99975 14.5786C2.0065 14.5696 2.01258 14.5614 2.01866 14.5538C2.02406 14.5456 2.02946 14.5387 2.03419 14.5325C2.03621 14.5291 2.03824 14.5263 2.04027 14.5236C2.04702 14.5133 2.05175 14.5057 2.05445 14.5022C2.05445 14.5016 2.05512 14.5009 2.05512 14.5009V14.5002C2.12266 14.3931 2.1956 14.2887 2.27258 14.1856C2.27394 14.1843 2.27461 14.1822 2.27664 14.1808C2.27731 14.1801 2.27799 14.1794 2.27799 14.1788C2.32999 14.1094 2.38402 14.0407 2.44007 13.9734C2.71223 13.645 3.02694 13.3448 3.36259 13.09C3.90084 12.6799 4.50527 12.3632 5.14684 12.1496C5.19007 12.1351 5.23261 12.1214 5.27583 12.1083C5.29407 12.1028 5.31298 12.0973 5.33121 12.0919C5.33256 12.0912 5.33391 12.0905 5.33526 12.0905C5.38186 12.0767 5.42846 12.0637 5.47506 12.0506C5.47641 12.0506 5.47776 12.0499 5.47979 12.0493C5.96874 11.916 6.47457 11.8343 6.9885 11.7958C7.08845 11.7882 7.18908 11.782 7.28971 11.7779C7.33698 11.7759 7.38425 11.7745 7.43153 11.7731C7.80027 11.7656 8.17171 11.7827 8.54044 11.826C8.70523 11.8411 8.86596 11.881 9.03547 11.8899H9.03682C9.05775 11.8913 9.07937 11.892 9.10098 11.892C9.21241 11.8913 9.32519 11.8775 9.43257 11.8446C9.46296 11.8349 9.49335 11.8239 9.52307 11.8109C9.52779 11.8088 9.5332 11.8075 9.53792 11.8054C9.5386 11.8054 9.5386 11.8047 9.53927 11.8047C9.57709 11.7875 9.61356 11.7676 9.64868 11.7449C9.75268 11.6776 9.81076 11.6014 9.84115 11.5478C9.87154 11.4942 9.87965 11.4647 9.87965 11.4647C9.87222 11.4578 9.88843 11.4358 9.90801 11.3919C9.92017 11.3417 9.94178 11.2613 9.9276 11.1556" fill="#D10E0E"/>
</g>
<defs>
<clipPath id="clip0_103_134">
<rect width="24" height="23" fill="white" transform="translate(0 1)"/>
</clipPath>
</defs>
</svg>
